<svg xmlns="http://www.w3.org/2000/svg" viewBox="-3.39 -3.39 30.77 30.77"><path d="M9.16861 16.0529L17.2018 9.85156C17.5957 9.54755 18.1586 9.66612 18.3463 10.1384C19.3339 12.6288 18.8926 15.6217 16.9276 17.6766C14.9626 19.7314 12.2285 20.1821 9.72948 19.1557L6.9995 20.4775C10.9151 23.2763 15.6699 22.5841 18.6411 19.4749C20.9979 17.0103 21.7278 13.6508 21.0453 10.6214L21.0515 10.6278C20.0617 6.17736 21.2948 4.39847 23.8207 0.760904C23.8804 0.674655 23.9402 0.588405 24 0.5L20.6762 3.97585V3.96506L9.16658 16.0551" fill="currentColor"></path><path d="M7.37742 16.7017C4.67579 14.0395 5.14158 9.91963 7.44676 7.54383C9.15135 5.78544 11.9442 5.06779 14.3821 6.12281L17.0005 4.87559C16.5288 4.52392 15.9242 4.14566 15.2305 3.87986C12.0948 2.54882 8.34069 3.21127 5.79171 5.8386C3.33985 8.36779 2.56881 12.2567 3.89286 15.5751C4.88192 18.0552 3.26056 19.8094 1.62731 21.5801C1.04853 22.2078 0.467774 22.8355 0 23.5L7.3754 16.7037" fill="currentColor"></path></svg>